<svg xmlns="http://www.w3.org/2000/svg" viewBox="0 0 400 400">
<defs><pattern id="g" width="40" height="40" patternUnits="userSpaceOnUse"><path d="M40 0H0V40" fill="none" stroke="#2E3B47" stroke-width="1" opacity="0.35"/></pattern></defs>
<rect width="400" height="400" fill="url(#g)"/>
<g fill="none" stroke="#EDE8DD" stroke-width="1.5">
<circle cx="200" cy="200" r="120"/>
<circle cx="200" cy="200" r="80"/>
<circle cx="300" cy="200" r="5"/><circle cx="250" cy="286.6" r="5"/><circle cx="150" cy="286.6" r="5"/>
<circle cx="100" cy="200" r="5"/><circle cx="150" cy="113.4" r="5"/><circle cx="250" cy="113.4" r="5"/>
</g>
<g fill="none" stroke="#C9A66B" stroke-width="1.25">
<circle cx="200" cy="200" r="22"/>
<path d="M251,168 L320,130 M312,130 L320,130 L320,138"/>
<path d="M149,232 L80,270 M80,262 L80,270 L88,270"/>
</g>
<g stroke="#2E3B47" stroke-width="1" opacity="0.7">
<path d="M14,14 V26 M14,14 H26"/><path d="M386,14 V26 M386,14 H374"/>
<path d="M14,386 V374 M14,386 H26"/><path d="M386,386 V374 M386,386 H374"/>
</g>
</svg>